<svg width="42" height="42" viewBox="0 0 42 42" fill="none" xmlns="http://www.w3.org/2000/svg">
<g id="MapPinLine">
<rect width="42" height="42" rx="20" fill="#FFB59D"/>
<path id="Vector" d="M28 33.125H22.5903C23.4991 32.2556 24.3561 31.3261 25.1562 30.3418C28.1586 26.6422 29.75 22.7422 29.75 19.0625C29.75 16.3275 28.7359 13.7044 26.9309 11.7705C25.1259 9.83649 22.6777 8.75 20.125 8.75C17.5723 8.75 15.1241 9.83649 13.3191 11.7705C11.5141 13.7044 10.5 16.3275 10.5 19.0625C10.5 22.7422 12.087 26.6422 15.0938 30.3418C15.8939 31.3261 16.7509 32.2556 17.6597 33.125H12.25C12.0179 33.125 11.7954 33.2238 11.6313 33.3996C11.4672 33.5754 11.375 33.8139 11.375 34.0625C11.375 34.3111 11.4672 34.5496 11.6313 34.7254C11.7954 34.9012 12.0179 35 12.25 35H28C28.2321 35 28.4546 34.9012 28.6187 34.7254C28.7828 34.5496 28.875 34.3111 28.875 34.0625C28.875 33.8139 28.7828 33.5754 28.6187 33.3996C28.4546 33.2238 28.2321 33.125 28 33.125ZM12.25 19.0625C12.25 16.8247 13.0797 14.6786 14.5565 13.0963C16.0334 11.5139 18.0364 10.625 20.125 10.625C22.2136 10.625 24.2166 11.5139 25.6935 13.0963C27.1703 14.6786 28 16.8247 28 19.0625C28 25.7691 21.933 31.3672 20.125 32.8906C18.317 31.3672 12.25 25.7691 12.25 19.0625ZM24.5 19.0625C24.5 18.1354 24.2434 17.2291 23.7627 16.4583C23.2819 15.6874 22.5987 15.0866 21.7992 14.7318C20.9998 14.377 20.1201 14.2842 19.2715 14.4651C18.4228 14.6459 17.6433 15.0924 17.0314 15.7479C16.4196 16.4035 16.0029 17.2387 15.8341 18.148C15.6653 19.0573 15.7519 19.9998 16.083 20.8563C16.4142 21.7129 16.9749 22.4449 17.6944 22.96C18.4138 23.4751 19.2597 23.75 20.125 23.75C21.2853 23.75 22.3981 23.2561 23.2186 22.3771C24.0391 21.498 24.5 20.3057 24.5 19.0625ZM17.5 19.0625C17.5 18.5062 17.654 17.9625 17.9424 17.5C18.2308 17.0374 18.6408 16.677 19.1205 16.4641C19.6001 16.2512 20.1279 16.1955 20.6371 16.304C21.1463 16.4126 21.614 16.6804 21.9812 17.0738C22.3483 17.4671 22.5983 17.9682 22.6996 18.5138C22.8008 19.0594 22.7489 19.6249 22.5502 20.1388C22.3515 20.6527 22.015 21.092 21.5834 21.401C21.1517 21.71 20.6442 21.875 20.125 21.875C19.4288 21.875 18.7611 21.5787 18.2688 21.0512C17.7766 20.5238 17.5 19.8084 17.5 19.0625Z" fill="#474343"/>
</g>
</svg>
