<svg width="42" height="42" viewBox="0 0 42 42" fill="none" xmlns="http://www.w3.org/2000/svg">
<g id="EnvelopeSimple">
<rect width="42" height="42" rx="20" fill="#FFB59D"/>
<path id="Vector" d="M32.8693 12.2174H8.63852C8.37076 12.2174 8.11396 12.3188 7.92462 12.4993C7.73528 12.6798 7.62891 12.9246 7.62891 13.1799V29.5424C7.62891 30.0529 7.84165 30.5426 8.22033 30.9036C8.599 31.2646 9.1126 31.4674 9.64814 31.4674H31.8597C32.3952 31.4674 32.9088 31.2646 33.2875 30.9036C33.6662 30.5426 33.8789 30.0529 33.8789 29.5424V13.1799C33.8789 12.9246 33.7725 12.6798 33.5832 12.4993C33.3939 12.3188 33.1371 12.2174 32.8693 12.2174ZM30.2733 14.1424L20.7539 22.462L11.2345 14.1424H30.2733ZM31.8597 29.5424H9.64814V15.3684L20.0712 24.4773C20.2574 24.6403 20.5011 24.7307 20.7539 24.7307C21.0068 24.7307 21.2504 24.6403 21.4367 24.4773L31.8597 15.3684V29.5424Z" fill="#474343"/>
</g>
</svg>
