<svg width="42" height="42" viewBox="0 0 42 42" fill="none" xmlns="http://www.w3.org/2000/svg">
<g id="Phone">
<rect width="42" height="42" rx="20" fill="#FFB59D"/>
<path id="Vector" d="M32.0705 25.2213L26.2995 22.6353L26.2836 22.6279C25.984 22.4998 25.6571 22.4483 25.3327 22.4783C25.0082 22.5082 24.6963 22.6186 24.4252 22.7994C24.3933 22.8205 24.3626 22.8434 24.3333 22.868L21.3517 25.4099C19.4627 24.4924 17.5125 22.5569 16.595 20.6924L19.1405 17.6654C19.165 17.6348 19.1883 17.6041 19.2104 17.5711C19.3873 17.3007 19.4946 16.9908 19.5228 16.6689C19.5511 16.3471 19.4993 16.0232 19.3721 15.7262V15.7115L16.7787 9.93066C16.6106 9.54266 16.3215 9.21944 15.9545 9.00926C15.5876 8.79907 15.1625 8.7132 14.7428 8.76445C13.0828 8.98288 11.5592 9.79808 10.4564 11.0578C9.35356 12.3175 8.74701 13.9356 8.75001 15.6098C8.75001 25.3364 16.6636 33.25 26.3901 33.25C28.0644 33.253 29.6824 32.6464 30.9422 31.5436C32.2019 30.4408 33.0171 28.9172 33.2355 27.2572C33.2868 26.8376 33.2011 26.4127 32.9912 26.0457C32.7812 25.6788 32.4583 25.3896 32.0705 25.2213ZM26.3901 31.29C22.2329 31.2854 18.2472 29.632 15.3076 26.6923C12.368 23.7527 10.7146 19.7671 10.71 15.6098C10.7054 14.4136 11.1364 13.2566 11.9225 12.3548C12.7085 11.4531 13.7959 10.8684 14.9816 10.7098C14.9811 10.7147 14.9811 10.7196 14.9816 10.7245L17.5541 16.482L15.0221 19.5127C14.9964 19.5423 14.973 19.5738 14.9522 19.607C14.7679 19.8899 14.6597 20.2156 14.6383 20.5526C14.6168 20.8895 14.6828 21.2263 14.8297 21.5303C15.9396 23.8002 18.2267 26.0702 20.5211 27.1788C20.8273 27.3244 21.1661 27.3881 21.5042 27.3636C21.8424 27.3391 22.1685 27.2274 22.4505 27.0392C22.482 27.018 22.5122 26.9951 22.5412 26.9706L25.5192 24.4299L31.2767 27.0086C31.2767 27.0086 31.2865 27.0086 31.2902 27.0086C31.1335 28.1959 30.5496 29.2855 29.6477 30.0735C28.7459 30.8616 27.5878 31.294 26.3901 31.29Z" fill="#474343"/>
</g>
</svg>
